
        <svg xmlns="http://www.w3.org/2000/svg" xmlns:xlink="http://www.w3.org/1999/xlink" version="1.1" width="3167.404324157298" height="945.8344314887352" viewBox="0 0 3167.404324157298 945.8344314887352">
			
			<g transform="scale(8.370216207864914) translate(10, 10)">
				<defs id="SvgjsDefs1766"/><g id="SvgjsG1767" featureKey="FRM3ZD-0" transform="matrix(6.639812558650976,0,0,6.639812558650976,1.6800937206745115,-39.796517126205046)" fill="#fff"><path d="M5.04 10.06 c0.68 0 1.3233 0.13004 1.93 0.39004 s1.1367 0.61334 1.59 1.06 s0.81 0.97332 1.07 1.58 s0.39 1.25 0.39 1.93 c0 0.69334 -0.13 1.3433 -0.39 1.95 s-0.61666 1.1333 -1.07 1.58 s-0.98334 0.8 -1.59 1.06 s-1.25 0.39 -1.93 0.39 l-4.54 0 l0 -9.94 l4.54 0 z"/></g><g id="SvgjsG1768" featureKey="vMvB0T-0" transform="matrix(4.208643618541374,0,0,4.208643618541374,76.60286529205652,4.579792704557114)" fill="#fff"><path d="M10.36 19.12 q-0.64 0.52 -1.68 0.76 t-2.3 0.24 q-0.62 0 -1.79 -0.02 t-2.93 -0.06 l-0.14 -0.14 l0 -13.46 l0.14 -0.14 q1.16 -0.04 2.41 -0.06 t2.63 -0.02 q1.7 0 2.84 0.54 t1.82 1.48 t0.96 2.21 t0.28 2.73 q0 2 -0.46 3.46 t-1.78 2.48 z M6.68 17.62 q2.64 0 2.64 -4.44 q0 -4.46 -2.64 -4.46 l-1.13 0 t-0.85 -0.02 l0 8.94 q0.36 -0.02 0.85 -0.02 l1.13 0 z M18 15.96 l-0.02 1.44 l0 0.02 q0.92 -0.04 1.48 -0.04 l4.64 0 q0 0.74 -0.06 1.14 q-0.24 1.54 -2.04 1.54 l-5.32 0 q-0.86 0 -1.35 -0.5 t-0.49 -1.36 l0 -11.72 l0.14 -0.14 l8.62 0 q0.12 0.58 0.12 1.26 t-0.28 1.42 l-5.46 0 l0.02 1.44 l0 1.4 q0.52 -0.02 1.36 -0.02 l3.06 0 q0.18 0.56 0.18 1.28 t-0.18 1.32 l-4.42 0 l0 1.52 z M29.64 17.14 q-0.54 0 -0.8 -0.02 l-0.86 2.9 q-0.48 0.12 -1.34 0.12 q-0.96 0 -1.56 -0.22 l-0.1 -0.16 l4.4 -13.42 q0.78 -0.12 1.82 -0.12 q1.18 0 1.88 0.14 l4.32 13.44 q-0.7 0.38 -1.58 0.38 q-1.04 0 -1.46 -0.36 t-0.72 -1.38 l-0.38 -1.32 q-0.26 0.02 -0.78 0.02 l-2.84 0 z M29.580000000000002 14.620000000000001 l0.8 -0.02 l1.46 0 q0.1 0 0.35 0.01 t0.37 0.01 l-0.34 -1.24 q-0.48 -1.68 -1.1 -4.12 l-0.12 0 q-0.16 0.86 -0.96 3.82 z M44.14 17.3 l3.46 0 q0 0.8 -0.1 1.37 t-0.64 0.98 t-1.42 0.41 l-4.52 0 q-0.86 0 -1.36 -0.5 t-0.5 -1.36 l0 -11.86 l0.14 -0.14 l1.18 0 q1.88 0 1.88 2.04 l0 9.14 q0.88 -0.08 1.88 -0.08 z M49.56 20 l0 -13.66 q0.62 -0.12 1.6 -0.12 t1.62 0.12 l0 13.66 q-0.64 0.12 -1.62 0.12 t-1.6 -0.12 z M58.82000000000001 16.28 q0.54 1.56 2.18 1.56 q0.82 0 1.33 -0.41 t0.8 -1.04 t0.39 -1.41 t0.1 -1.54 q0 -0.7 -0.05 -1.56 t-0.29 -1.61 t-0.76 -1.26 t-1.52 -0.51 q-0.96 0 -1.47 0.49 t-0.76 1.21 t-0.31 1.53 t-0.06 1.43 q0 0.92 0.09 1.64 t0.33 1.48 z M57.2 19.04 q-2.14 -1.78 -2.14 -5.86 q0 -1.76 0.41 -3.09 t1.18 -2.23 t1.87 -1.36 t2.48 -0.46 t2.49 0.46 t1.88 1.37 t1.18 2.24 t0.41 3.07 t-0.41 3.07 t-1.18 2.23 t-1.88 1.36 t-2.49 0.46 q-2.28 0 -3.8 -1.26 z"/></g>
			</g>
		</svg>
	